# xmcd CD database file
#
# Track frame offsets:
#	150
#	20894
#	40351
#	62322
#	91656
#	111035
#
# Disc length: 1882 seconds
#
# Revision: 3
# Processed by: cddbd v1.5.2PL0 Copyright (c) Steve Scherf et al.
# Submitted via: ACXtractor (MTCDDB.DLL V2003.12.21)
#
DISCID=42075806
DTITLE=The RedHouse Blues Band - RedHouse at the Roadhouse
DYEAR=2009
DGENRE=Blues
TTITLE0=Let The Good Times Roll
TTITLE1=Black Cat Bone
TTITLE2=I'm A Blues Man
TTITLE3=Baby Lee
TTITLE4=Soul Fixin' Man
TTITLE5=Roadhouse Blues
EXTD=RedHouse at the Roadhouse - Promotional Demo CD ID3G:   0 YEAR: 2009
EXTT0=
EXTT1=
EXTT2=
EXTT3=
EXTT4=
EXTT5=
PLAYORDER=
